<!-- python-military-symbols generated symbol
     unit_id: fs_mortar
     label: 迫撃砲
     query: unknown mortar
     affiliation: unknown
     confidence: conf
     weight: light
     category: fire_support
-->
<svg xmlns="http://www.w3.org/2000/svg" width="178.5" height="178.5" viewBox="10.75 10.75 178.5 178.5">
<path d="M63,63 C63,20 137,20 137,63 C180,63 180,137 137,137 C137,180 63,180 63,137 C20,137 20,63 63,63 Z" fill="rgb(255, 255, 0)" stroke="#ffffff" stroke-width="32.0" stroke-linecap="round" />
<path d="M63,63 C63,20 137,20 137,63 C180,63 180,137 137,137 C137,180 63,180 63,137 C20,137 20,63 63,63 Z" fill="rgb(255, 255, 0)" stroke="rgb(0, 0, 0)" stroke-width="4.0" stroke-linecap="round" />
<circle cx="100" cy="115" r="5" fill="none" stroke="rgb(0, 0, 0)" stroke-width="4.0" stroke-linecap="round" />
<path d="M100,111 l0,-30 M90,90 l10,-10 10,10" fill="none" stroke="rgb(0, 0, 0)" stroke-width="4.0" stroke-linecap="round" />
</svg>